<svg width="408" height="353" xmlns="http://www.w3.org/2000/svg" xmlns:xlink="http://www.w3.org/1999/xlink" xml:space="preserve" overflow="hidden"><defs><clipPath id="clip0"><rect x="775" y="1356" width="408" height="353"/></clipPath><linearGradient x1="1015.48" y1="1643.02" x2="961.519" y2="1336.98" gradientUnits="userSpaceOnUse" spreadMethod="reflect" id="fill1"><stop offset="0" stop-color="#F0F8FD"/><stop offset="0.42" stop-color="#74C4E9"/><stop offset="0.59" stop-color="#0070C0"/><stop offset="0.86" stop-color="#7030A0"/><stop offset="1" stop-color="#7030A0"/></linearGradient><linearGradient x1="986.5" y1="1442" x2="986.5" y2="1709" gradientUnits="userSpaceOnUse" spreadMethod="reflect" id="fill2"><stop offset="0" stop-color="#F0F8FD"/><stop offset="0.2" stop-color="#74C4E9"/><stop offset="0.48" stop-color="#0070C0"/><stop offset="1" stop-color="#7030A0"/></linearGradient><linearGradient x1="961.519" y1="1335.98" x2="1015.48" y2="1642.02" gradientUnits="userSpaceOnUse" spreadMethod="reflect" id="fill3"><stop offset="0" stop-color="#F0F8FD"/><stop offset="0.38" stop-color="#74C4E9"/><stop offset="0.59" stop-color="#0070C0"/><stop offset="0.96503" stop-color="#7030A0"/><stop offset="1" stop-color="#7030A0"/></linearGradient><linearGradient x1="893.818" y1="1736.03" x2="1079.18" y2="1414.97" gradientUnits="userSpaceOnUse" spreadMethod="reflect" id="fill4"><stop offset="0" stop-color="#F0F8FD"/><stop offset="0.2" stop-color="#74C4E9"/><stop offset="0.58" stop-color="#0070C0"/><stop offset="1" stop-color="#7030A0"/></linearGradient><linearGradient x1="1177" y1="1409" x2="1108" y2="1478" gradientUnits="userSpaceOnUse" spreadMethod="reflect" id="fill5"><stop offset="0" stop-color="#7030A0"/><stop offset="0.37" stop-color="#D86ECC"/><stop offset="0.67" stop-color="#0070C0"/><stop offset="1" stop-color="#163E64"/></linearGradient><linearGradient x1="823.5" y1="1670" x2="823.5" y2="1573" gradientUnits="userSpaceOnUse" spreadMethod="reflect" id="fill6"><stop offset="0" stop-color="#7030A0"/><stop offset="0.28" stop-color="#D86ECC"/><stop offset="0.67" stop-color="#0070C0"/><stop offset="1" stop-color="#163E64"/></linearGradient><linearGradient x1="1108" y1="1402" x2="1064" y2="1446" gradientUnits="userSpaceOnUse" spreadMethod="reflect" id="fill7"><stop offset="0" stop-color="#7030A0"/><stop offset="0.37" stop-color="#D86ECC"/><stop offset="0.67" stop-color="#0070C0"/><stop offset="1" stop-color="#163E64"/></linearGradient><linearGradient x1="1183" y1="1356" x2="1133" y2="1406" gradientUnits="userSpaceOnUse" spreadMethod="reflect" id="fill8"><stop offset="0" stop-color="#7030A0"/><stop offset="0.37" stop-color="#D86ECC"/><stop offset="0.67" stop-color="#0070C0"/><stop offset="1" stop-color="#163E64"/></linearGradient></defs><g clip-path="url(#clip0)" transform="translate(-775 -1356)"><path d="M951.044 1384.3C1028.76 1337.77 1122.23 1351.37 1129 1420.1 1077.8 1347.71 977.877 1392.02 936.712 1449.93 868.595 1570.32 1022.42 1515.15 1032.02 1568.05 1046.31 1619.96 889.894 1672.06 850.003 1537.98 838.777 1484.09 875.044 1430.08 951.044 1384.3Z" fill="url(#fill1)" fill-rule="evenodd"/><path d="M1024.92 1682.77C940.774 1725.84 852.333 1717.22 847 1646.88 898.186 1719.46 994.507 1670.01 1039.24 1616.98 1110.09 1488.02 936.436 1537.91 939.66 1494.96 936.117 1435.03 1089.63 1403.61 1125.22 1525.11 1131.43 1585.6 1100.9 1636.88 1024.92 1682.77Z" fill="url(#fill2)" fill-rule="evenodd"/><path d="M950.346 1383.18C1028.05 1336.44 1122.23 1350.82 1129 1419.86 1094.29 1324.13 959.263 1372.96 918.102 1431.13 824.197 1547.52 959.302 1626.87 1032.03 1568.5 1046.32 1620.64 882.037 1668.67 850.032 1538.29 838.806 1484.15 874.354 1429.17 950.346 1383.18Z" fill="url(#fill3)" fill-rule="evenodd"/><path d="M1024.92 1682.82C940.774 1725.8 852.333 1717.21 847 1647.01 891.021 1754.53 1028.9 1673.67 1067.9 1617.88 1092.99 1576.86 1097.69 1512.29 1044.8 1491.16 971.123 1464.3 944.167 1509.73 939.66 1495.39 934.685 1434.87 1104.68 1403.51 1125.22 1525.48 1131.43 1585.85 1100.9 1637.02 1024.92 1682.82Z" fill="url(#fill4)" fill-rule="evenodd"/><path d="M1142.2 1409 1143.9 1409 1144.14 1411.39C1147.46 1427.63 1160.25 1440.42 1176.49 1443.74L1177 1443.79 1177 1444.29 1176.49 1444.34C1160.25 1447.67 1147.46 1460.45 1144.14 1476.69L1144.01 1478 1142.09 1478 1141.96 1476.69C1138.64 1460.45 1125.85 1447.67 1109.61 1444.34L1108 1444.18 1108 1443.9 1109.61 1443.74C1125.85 1440.42 1138.64 1427.63 1141.96 1411.39Z" fill="url(#fill5)" fill-rule="evenodd"/><path d="M823.081 1573 825.468 1573 825.807 1576.36C830.477 1599.19 848.454 1617.17 871.279 1621.84L872 1621.91 872 1622.61 871.279 1622.69C848.454 1627.36 830.477 1645.33 825.807 1668.16L825.621 1670 822.927 1670 822.742 1668.16C818.071 1645.33 800.094 1627.36 777.27 1622.69L775 1622.46 775 1622.06 777.27 1621.84C800.094 1617.17 818.071 1599.19 822.742 1576.36Z" fill="url(#fill6)" fill-rule="evenodd"/><path d="M1085.81 1402 1086.89 1402 1087.05 1403.53C1089.16 1413.88 1097.32 1422.03 1107.67 1424.15L1108 1424.19 1108 1424.51 1107.67 1424.54C1097.32 1426.66 1089.16 1434.81 1087.05 1445.17L1086.96 1446 1085.74 1446 1085.66 1445.17C1083.54 1434.81 1075.38 1426.66 1065.03 1424.54L1064 1424.43 1064 1424.26 1065.03 1424.15C1075.38 1422.03 1083.54 1413.88 1085.66 1403.53Z" fill="url(#fill7)" fill-rule="evenodd"/><path d="M1157.78 1356 1159.01 1356 1159.19 1357.73C1161.6 1369.5 1170.86 1378.77 1182.63 1381.17L1183 1381.21 1183 1381.57 1182.63 1381.61C1170.86 1384.02 1161.6 1393.29 1159.19 1405.05L1159.09 1406 1157.7 1406 1157.61 1405.05C1155.2 1393.29 1145.94 1384.02 1134.17 1381.61L1133 1381.49 1133 1381.29 1134.17 1381.17C1145.94 1378.77 1155.2 1369.5 1157.61 1357.73Z" fill="url(#fill8)" fill-rule="evenodd"/></g></svg>